<?xml version="1.0" encoding="iso-8859-1"?>
<!-- Generator: Adobe Illustrator 19.0.0, SVG Export Plug-In . SVG Version: 6.00 Build 0)  -->
<svg version="1.1" id="Layer_1" xmlns="http://www.w3.org/2000/svg" xmlns:xlink="http://www.w3.org/1999/xlink" x="0px" y="0px"
	 viewBox="0 0 512 512" style="enable-background:new 0 0 512 512;" xml:space="preserve">
<g>
	<path style="fill:#5286FA;" d="M120.496,192.463c4.369,6.543,11.674,10.344,19.346,10.344c1.508,0,3.03-0.146,4.546-0.447
		c9.231-1.837,16.449-9.055,18.284-18.286L188.596,53.74c1.202-6.054-0.045-12.338-3.475-17.47
		c-3.429-5.132-8.757-8.692-14.809-9.896L39.979,0.449c-9.238-1.839-18.663,2.07-23.89,9.896c-5.23,7.826-5.23,18.033,0,25.859
		l44.185,66.127C25.9,146.045,7.152,199.942,7.152,256.004c0,98.955,58.602,188.5,149.294,228.129
		c3.033,1.325,6.195,1.953,9.306,1.953c8.968,0,17.516-5.216,21.338-13.96c5.145-11.777-0.23-25.497-12.007-30.644
		c-73.737-32.22-121.384-105.025-121.384-185.476c0-40.378,11.967-79.367,34.119-112.447L120.496,192.463z"/>
	<path style="fill:#5286FA;" d="M451.742,409.665c34.363-43.712,53.107-97.604,53.107-153.661
		c0-98.953-58.602-188.499-149.294-228.129c-11.776-5.145-25.497,0.23-30.644,12.007c-5.146,11.777,0.228,25.497,12.007,30.645
		c73.737,32.222,121.384,105.026,121.384,185.478c0,40.37-11.964,79.356-34.11,112.433l-32.673-48.897
		c-5.229-7.826-14.654-11.736-23.889-9.896c-9.233,1.837-16.451,9.053-18.286,18.284l-25.927,130.334
		c-1.204,6.054,0.045,12.339,3.475,17.47c3.429,5.132,8.757,8.691,14.811,9.895l130.336,25.923c1.516,0.301,3.036,0.448,4.543,0.448
		c0.233,0,0.465-0.003,0.698-0.009c12.542-0.355,22.602-10.634,22.602-23.263c0-5.188-1.699-9.981-4.569-13.852L451.742,409.665z"/>
</g>
<g>
</g>
<g>
</g>
<g>
</g>
<g>
</g>
<g>
</g>
<g>
</g>
<g>
</g>
<g>
</g>
<g>
</g>
<g>
</g>
<g>
</g>
<g>
</g>
<g>
</g>
<g>
</g>
<g>
</g>
</svg>
